<svg width="50" height="15" viewBox="0 0 50 15" fill="none" xmlns="http://www.w3.org/2000/svg">
<g clip-path="url(#clip0_9073_8505)">
<path d="M13.0038 7.9661V0.0629489H8.70216L0 14.9369H4.7773L8.80212 8.01504V14.8783H13.5794L17.7564 8.16255V14.9369H22.0075V0.0135498H17.5563L13.0038 7.9661Z" fill="#007DC4"/>
<path d="M33.4122 0.0135498H28.2595L23.0076 7.47535L28.3094 14.9369H33.4122L28.0895 7.47535L33.4122 0.0135498Z" fill="#F6861E"/>
<path d="M34.4369 0.00289499H43.1407C43.1407 0.00289499 46.117 -0.169078 48.1182 2.1379C50.119 4.44581 50.369 8.02863 47.3683 10.6064C47.3683 10.6064 45.4416 12.0057 43.5413 12.0057H38.6147V14.9505H34.4122V8.05356H43.2614C43.2614 8.05356 45.4826 8.05356 45.4826 6.13923C45.4826 4.42111 44.1919 4.00353 43.0913 4.00353H34.4372V0.00289499H34.4369Z" fill="#007DC4"/>
</g>
<defs>
<clipPath id="clip0_9073_8505">
<rect width="49.6235" height="14.9505" fill="white"/>
</clipPath>
</defs>
</svg>
